<svg width="175" height="39" viewBox="0 0 175 39" fill="none" xmlns="http://www.w3.org/2000/svg">
<path d="M18.886 23.946H8.32202L6.57401 29H0.988002L10.526 2.43794H16.72L26.2581 29H20.634L18.886 23.946ZM17.442 19.69L13.604 8.59396L9.76602 19.69H17.442ZM48.5573 7.94795V29H43.1993V26.34C42.5153 27.252 41.6159 27.974 40.5013 28.506C39.4119 29.0127 38.2213 29.266 36.9292 29.266C35.2826 29.266 33.8259 28.924 32.5592 28.24C31.2926 27.5307 30.2919 26.5047 29.5572 25.162C28.8479 23.794 28.4932 22.1727 28.4932 20.298V7.94795H33.8132V19.538C33.8132 21.21 34.2312 22.502 35.0672 23.414C35.9032 24.3007 37.0432 24.744 38.4873 24.744C39.9566 24.744 41.1093 24.3007 41.9453 23.414C42.7813 22.502 43.1993 21.21 43.1993 19.538V7.94795H48.5573ZM58.8603 12.318V22.502C58.8603 23.2113 59.025 23.7307 59.3543 24.06C59.709 24.364 60.2917 24.516 61.1023 24.516H63.5724V29H60.2283C55.7443 29 53.5023 26.8213 53.5023 22.464V12.318H50.9943V7.94795H53.5023V2.74194H58.8603V7.94795H63.5724V12.318H58.8603ZM75.6068 29.342C73.5801 29.342 71.7561 28.8987 70.1348 28.012C68.5135 27.1 67.2341 25.8207 66.2968 24.174C65.3848 22.5273 64.9288 20.6273 64.9288 18.474C64.9288 16.3206 65.3974 14.4206 66.3348 12.774C67.2975 11.1273 68.6021 9.86063 70.2488 8.97396C71.8955 8.06196 73.7321 7.60595 75.7588 7.60595C77.7855 7.60595 79.6221 8.06196 81.2688 8.97396C82.9155 9.86063 84.2075 11.1273 85.1448 12.774C86.1075 14.4206 86.5888 16.3206 86.5888 18.474C86.5888 20.6273 86.0948 22.5273 85.1068 24.174C84.1442 25.8207 82.8268 27.1 81.1548 28.012C79.5081 28.8987 77.6588 29.342 75.6068 29.342ZM75.6068 24.706C76.5695 24.706 77.4688 24.478 78.3048 24.022C79.1661 23.5407 79.8501 22.8313 80.3568 21.894C80.8635 20.9566 81.1168 19.8166 81.1168 18.474C81.1168 16.4726 80.5848 14.94 79.5208 13.876C78.4821 12.7866 77.2028 12.242 75.6828 12.242C74.1628 12.242 72.8835 12.7866 71.8448 13.876C70.8315 14.94 70.3248 16.4726 70.3248 18.474C70.3248 20.4753 70.8188 22.0207 71.8068 23.11C72.8201 24.174 74.0868 24.706 75.6068 24.706ZM94.6713 24.782H103.411V29H89.3513V2.47594H94.6713V24.782ZM125.527 7.94795V29H120.169V26.34C119.485 27.252 118.585 27.974 117.471 28.506C116.381 29.0127 115.191 29.266 113.899 29.266C112.252 29.266 110.795 28.924 109.529 28.24C108.262 27.5307 107.261 26.5047 106.527 25.162C105.817 23.794 105.463 22.1727 105.463 20.298V7.94795H110.783V19.538C110.783 21.21 111.201 22.502 112.037 23.414C112.873 24.3007 114.013 24.744 115.457 24.744C116.926 24.744 118.079 24.3007 118.915 23.414C119.751 22.502 120.169 21.21 120.169 19.538V7.94795H125.527ZM134.956 11.026C135.64 10.0126 136.577 9.18929 137.768 8.55596C138.984 7.92262 140.364 7.60595 141.91 7.60595C143.708 7.60595 145.33 8.04929 146.774 8.93596C148.243 9.82263 149.396 11.0893 150.232 12.736C151.093 14.3573 151.524 16.2446 151.524 18.398C151.524 20.5513 151.093 22.464 150.232 24.136C149.396 25.7827 148.243 27.062 146.774 27.974C145.33 28.886 143.708 29.342 141.91 29.342C140.339 29.342 138.958 29.038 137.768 28.43C136.602 27.7967 135.665 26.986 134.956 25.998V29H129.636V0.87994H134.956V11.026ZM146.09 18.398C146.09 17.1313 145.824 16.042 145.292 15.13C144.785 14.1926 144.101 13.4833 143.24 13.002C142.404 12.5206 141.492 12.28 140.504 12.28C139.541 12.28 138.629 12.5333 137.768 13.04C136.932 13.5213 136.248 14.2306 135.716 15.168C135.209 16.1053 134.956 17.2073 134.956 18.474C134.956 19.7406 135.209 20.8426 135.716 21.78C136.248 22.7173 136.932 23.4393 137.768 23.946C138.629 24.4273 139.541 24.668 140.504 24.668C141.492 24.668 142.404 24.4147 143.24 23.908C144.101 23.4013 144.785 22.6793 145.292 21.742C145.824 20.8046 146.09 19.69 146.09 18.398ZM174.39 7.94795L161.356 38.956H155.694L160.254 28.468L151.818 7.94795H157.784L163.218 22.654L168.728 7.94795H174.39Z" fill="#F54A48"/>
</svg>
